<svg xmlns="http://www.w3.org/2000/svg" viewBox="0 0 866.04 196.62"><defs><style>.cls-1{fill:#412a75;}.cls-2{fill:#e64f73;}.cls-3{fill:#d9286f;}</style></defs><title>Asset 3</title><g id="Layer_2" data-name="Layer 2"><g id="Layer_1-2" data-name="Layer 1"><path class="cls-1" d="M401,127.06c0-13.16-.08-26.32,0-39.48.06-7.32,1.23-8.4,8.45-8.6q4-.11,8,0c3.85.13,6.13,2,6.4,6,.09,1.26-.36,3,1.24,3.39,1.41.32,2.14-1.35,3-2.23,10.05-9.73,21.88-11.85,34.52-6.8,5.39,2.15,10.88,5.37,14.11,10.79,1.78,3,2.82,1.94,4.55-.07,11.86-13.81,31.8-17.36,47-8.09,8.33,5.08,12.75,12.66,14.46,22.55,3.46,20,1,40.12,1.68,60.16.3,9.28-1.18,10.38-10.26,10.39-13.16,0-13.23-.09-13.19-13.49q.08-19,0-38c0-5.34-.49-10.6-2.57-15.63-2.85-6.9-9.58-10.45-17.08-9.57-10.38,1.2-14.84,7.21-16.16,15.76-1.39,9-.68,18-.84,26.94-.14,8.16,0,16.33-.05,24.49-.06,8-1.42,9.36-9.21,9.46-14.23.17-14.15.12-14.29-13.89-.15-14.82.76-29.66-.52-44.45-.55-6.36-1.33-12.61-8.23-16.26-10.56-5.59-23.75,0-26.34,11.74a62.57,62.57,0,0,0-1.49,13.85c.06,13,.1,26,0,39-.06,8.77-1.46,10.06-10.21,10.08-13,0-13.06,0-13.06-13.12v-35Z"/><path class="cls-1" d="M236.32,105.91c0-19.5,0-39,0-58.49,0-9.4,1.36-10.64,10.7-10.64q34,0,68,0c7.3,0,8.69,1.43,8.73,8.75,0,2.17,0,4.33,0,6.5,0,7.25-1.55,8.85-8.72,8.86-16.33,0-32.66.17-49-.1-4.5-.08-5.73,1.23-5.52,5.63.37,7.81.24,15.66,0,23.49-.08,3,.8,3.95,3.9,3.91,14.49-.16,29-.1,43.49-.08,5.92,0,7.62,1.58,8.27,7.49,1.57,14.29.13,15.91-14.14,15.91-12,0-24,.11-36-.09-4-.07-5.74.91-5.57,5.28.31,8,.29,16,0,24-.16,4.29,1.5,5.36,5.53,5.32,17.16-.18,34.32-.1,51.48-.08,6.3,0,7.89,1.63,8.07,7.92.51,18-1.08,15.63-15.39,15.63q-31.74,0-63.48,0c-9.42,0-10.44-1-10.45-10.71Q236.31,135.16,236.32,105.91Z"/><path class="cls-1" d="M767.05,134.47c-9.16,0-18.32.08-27.48-.05-3.23,0-4,.76-3.06,4,5.59,19.37,26.83,25.32,40.87,11.19,4.15-4.17,12.33-1.35,16.36,3.55,2.87,3.49,2.22,7-.9,9.8-13.79,12.43-29.59,17.65-47.88,12.16-18.82-5.65-28-19.71-31.39-38A54.59,54.59,0,0,1,715.26,110c7.66-23.25,27.71-36.65,51.85-32,14,2.7,29.63,15,31.82,32.87.68,5.51,2.1,10.94,1.69,16.54-.47,6.37-1.34,7.08-7.58,7.1h-26Zm-10.34-17.34v0h14.94c6.55,0,7.49-1.31,5.39-7.5-3.33-9.82-12.3-14.29-25.63-12.59-6.21.79-13.63,10.48-14.79,17.29-.4,2.35.58,2.83,2.65,2.8C745.08,117.07,750.89,117.13,756.71,117.13Z"/><path class="cls-1" d="M623.38,177.08c-13.07.51-23.54-4.19-31-14.9-4-5.75-3.52-8.21,2.17-12.11a32.11,32.11,0,0,1,5-3.11c4.92-2.18,7.6-1.22,10.41,3.42,4.2,7,8,8.65,15.59,6.64,4.48-1.18,7.91-3.43,8-8.78.06-4.93-2.39-8.66-7.26-10.24-7.27-2.36-14.5-4.65-21.16-8.61C585.68,117.83,590,93,602.46,83.8c9.91-7.31,25.65-9.41,37.88-2.93,5,2.64,9.28,5.66,12.15,10.5,2.11,3.54,1.94,6.61-2.13,8.76-2.06,1.08-4,2.45-6,3.52-3.45,1.79-6.49,2-9.05-1.82-3.18-4.69-8-5.69-13.27-4.73-4.1.75-7.23,2.89-7.3,7.51s1.75,7.7,6.57,9.21c9.07,2.84,18.48,5.27,26.16,11.09,4.95,3.75,7.53,9.5,8.78,15.68,2.13,10.52-2.66,26.42-13.21,31.85C636.81,175.63,630.34,177.72,623.38,177.08Z"/><path class="cls-1" d="M693.69,124.9c.54,6.87-.93,15.22.86,23.47,1,4.8,3.4,6.76,8.19,6.49,8.42-.48,14,7.9,10.53,15.86a5.39,5.39,0,0,1-2.26,2.93c-12.2,7-32,.93-37.2-11.79-2.76-6.83-3.37-14.2-3.38-21.57,0-12-.15-24,.08-36,.07-3.52-.87-4.75-4.4-4.39-4.74.49-7.17-1.82-7.12-6.66,0-2-.16-4-.06-6,.35-7,.54-7.34,7.75-7.86,3.29-.23,3.74-2.11,3.75-4.67,0-5.49,0-11,.08-16.48s2-7.68,7.29-7.9c16.88-.69,16.07-.28,15.91,14.45,0,3.17.3,6.37-.08,9.49-.53,4.2,1.37,4.84,5,4.81,13.58-.11,13.79.34,13.28,14-.18,4.83-2.28,6.78-7,7-3.68.16-8.62-2-10.74,1.11-1.71,2.54-.45,7.1-.47,10.76C693.67,115.82,693.69,119.65,693.69,124.9Z"/><path class="cls-1" d="M363.77,106.37c0,19.49-.19,39,.12,58.46.1,6.56-3.05,10.76-10.31,10.5-13.18-.49-13.45-.42-13.43-13.44q.06-57,.07-113.93c0-10.44.84-11.2,11-11.19,12.22,0,12.57.34,12.58,12.63Q363.79,77.89,363.77,106.37Z"/><path class="cls-1" d="M834.14,93c5.25-11.29,13.26-16.38,24.5-16,7,.21,8.06,1.61,7.1,8.59-.07.49-.06,1-.17,1.48-.82,3.72-1,7.82-2.69,11.05-2.23,4.17-7,1.6-10.59,2.25-12.44,2.21-18.44,10.28-18.67,22.86-.24,14,0,28-.1,41.95,0,8.66-1.47,10-10.22,10.08-12.93.07-13.38-.55-13.33-13.43.11-24,.06-47.94,0-71.92,0-9.83,1-11.06,10.73-10.89C833.16,79.16,831.75,77.87,834.14,93Z"/><path class="cls-1" d="M582.91,126.91c0,13.16.1,26.33,0,39.49-.08,7.24-1.73,8.65-9,8.74-14.45.16-14.47.16-14.49-14.08q0-36.5,0-73c0-7.9,1.15-9,8.87-9.13,14.47-.17,14.51-.17,14.59,14.47.07,11.16,0,22.33,0,33.5Z"/><path class="cls-2" d="M801.56,44.24c-3.18,1.55-3.93,3.85-5.26,5.62-3.58,4.76-7.18,4.8-10.88.25-1.3-1.6-2.15-4.85-4.29-4.2-2.54.77-1.27,4-1.45,6.18-.22,2.65-.06,5.32-.08,8,0,2.93-1.76,4.14-4.46,4.24s-4.5-1.29-4.54-4.1c-.18-10.46-.26-20.92-.31-31.39,0-2.14.83-3.91,3.12-4.57,3-.85,5.26.23,7,2.58,2.55,3.46,5.2,6.89,7.42,10.56s3.92,3.1,6-.12c2.24-3.5,4.73-6.83,7.1-10.24,1.7-2.45,3.92-3.57,6.87-2.61s3.25,3.45,3.26,6c0,9.48-.06,19,.1,28.43.06,3.3-1.62,5.3-4.42,5.39s-5.23-1.56-5.15-5.18C801.64,54.38,801.56,49.65,801.56,44.24Z"/><path class="cls-2" d="M831.63,23.46a14.44,14.44,0,0,1,9,3A4.14,4.14,0,0,1,842,32.19a4,4,0,0,1-5.43,2.12c-1.56-.55-3-1.47-4.58-1.92a3.15,3.15,0,0,0-4.11,1.89c-.74,1.89.2,3.34,1.9,4,2.3.94,4.76,1.48,7.08,2.39,6.24,2.46,8.75,6.69,8,13.25a12.29,12.29,0,0,1-10.41,10.61,17.73,17.73,0,0,1-14.89-4.09c-2.85-2.45-2.74-5.17-.5-7.88,2.39-2.88,4.59-1.56,6.72.51a8.58,8.58,0,0,0,3.1,2.34c2.43.7,5.22,1.07,6.37-2s-1.08-4.2-3.43-5c-1.38-.5-2.8-.86-4.22-1.25C820.91,45.32,817,40.15,818,34,819.4,26.18,825.05,23,831.63,23.46Z"/><path class="cls-1" d="M571.39,36.28c7.43.11,14.11,7,14,14.43a14.22,14.22,0,0,1-14.43,14.06c-8.35,0-13.74-7.25-13.75-14.45A13.58,13.58,0,0,1,571.39,36.28Z"/><path class="cls-2" d="M738.61,43.82V28.88c0-2.95,1.28-4.81,4.41-4.83s4.76,1.62,4.71,5c-.1,7.64.07,15.28-.07,22.92,0,2.77.78,3.89,3.66,3.72,3.47-.2,7,0,10.46,0,3.15-.06,4,1.94,4,4.51s-1.15,4.07-3.89,4.06c-6.31,0-12.62,0-18.93,0-3.34,0-4.24-2.16-4.28-4.91-.08-5.14,0-10.29,0-15.44Z"/><circle class="cls-2" cx="107.94" cy="91.43" r="91.43"/><path class="cls-1" d="M7.15,78.46c-1.27-.74-2.63-1.39-3.82-2.25C-1.29,72.83-1.1,67,3.89,64,6.51,62.38,18,56.48,19.26,55.86c26.51-12.73,53-25.43,79.44-38.36a19.1,19.1,0,0,1,18.1,0c25.83,12.67,51.74,25.17,77.63,37.74,1.8.88,20.2,12.06,20.74,14.27a5.41,5.41,0,0,1-2.53,5.93c-1.5,1-3,2-4.48,3q-18.1,9.34-36.23,18.72c-17.56,9.09-35.19,18.06-52.64,27.39-7.4,4-14.47,4.35-21.82.32-1.9-1-3.87-1.93-5.8-2.9Q68.71,110.48,45.74,99c-4.1-2-5-1.44-4.89,2.92.21,8.78.48,17.57.48,26.35A14.62,14.62,0,0,0,44.42,138c3,3.72,3,7.76.75,11.63-2,3.47-2.05,6.84-1.12,10.55a130.7,130.7,0,0,1,3.53,16.56c.56,4.83-1.59,7.32-6,8.81-3.45,1.15-6.51-.47-9.76-.44-2.71-.59-5.06-1.6-5.52-4.79v.1c0-1.27,0-2.55.06-3.8,1.24-4.76,2.52-9.53,3.69-14.32s2.18-9.22-.74-13.92c-2.09-3.36-1-7.12,1.27-10.32a19,19,0,0,0,3.16-9.78c.85-9.48.59-19,.42-28.43-.07-4,0-7,5.4-6C40.67,94,42,93,43.27,92.54q25.62-10.49,51.22-21a13.09,13.09,0,0,1,8.65-1,15.43,15.43,0,0,0,11.19-1.06c2.39-1.27,3.94-2.95,4-5.79s-1.53-4.33-3.54-5.62C108.76,54.14,99.76,56,96,62.1A9.61,9.61,0,0,1,91.05,66C77.48,71.49,63.86,76.85,50.36,82.48c-5.57,2.33-12,3.39-15.6,9.16-1,1.56-2.07.4-3-.09C23.55,87.22,15.35,82.83,7.15,78.46Z"/><path class="cls-3" d="M26.27,180.39v0Z"/><path class="cls-1" d="M161.45,132.35c0,3-.2,6,0,9,1,12-5.42,19.37-15.08,24.83a80,80,0,0,1-14.78,6c-1.57.52-3.74.92-3.73,2.82,0,5.83-3.47,11.26-2,17.15.9,3.56-.6,4.51-3.78,4.47-8.66-.09-17.32,0-26-.18-6-.13-8.12-2-8.93-7.9a41,41,0,0,1-.29-9.46c.48-4.93-1.56-7-6.3-8.3-8.07-2.14-15.53-5.62-21.24-12.27a21.92,21.92,0,0,1-5.48-14.59c-.1-8.83-.15-17.66,0-26.49.07-5.61,1.67-6.53,6.76-3.92,12.59,6.46,25.21,12.87,37.65,19.61,6.64,3.6,12.71,3.55,19.34-.13,11.77-6.55,23.75-12.74,35.78-18.82,6.63-3.36,7.73-2.56,8,4.7.09,2.33.06,4.66.07,7,0,2.17,0,4.33,0,6.5Zm-36.86,31.2c-2.76,2.09-4.3,3.35-5.93,4.46-2.92,2-6.72,6.11-9.31,3.54-2.83-2.81.18-7.43,2.25-10.89a10.93,10.93,0,0,1,1.28-1.53l9.34-10.4c1-1.12,2.25-2.38,1.68-3.92-.64-1.76-2.54-1.26-4-1.26-7.83,0-15.66.19-23.49.1-4.72-.05-6.67,2.46-6.81,6.74a273.06,273.06,0,0,0,.61,29.45c.12,1.65.47,2.95,2.52,2.95,9.15,0,18.29.11,27.44.06,2.25,0,4.39-.58,4.38-3.61C124.58,174.46,124.59,169.67,124.59,163.55Zm-17.35,30.32v-.16c4,0,8-.05,12,0,3.18,0,3.31-2.11,3.29-4.39,0-1.92.65-4.34-2.53-4.33-8.31,0-16.62.06-24.93.3-2.65.07-5,1.16-4.63,4.55.37,3.09,2.56,4,5.34,4Zm9.22-28.2a4.69,4.69,0,0,0,1.62-.79c4.28-4.61,8.54-9.24,12.72-13.94,1-1.09.25-2.16-.63-3s-2.14-1.25-3.07-.23c-4.25,4.63-8.53,9.25-12.51,14.1C113.34,163.29,113.46,165.31,116.46,165.67Zm17.16-24.45c-1.05.44-2.49.72-2.29,2.12a3.43,3.43,0,0,0,3,2.89c1.68.17,2.1-1.34,2-2.72A2.36,2.36,0,0,0,133.62,141.22Z"/><path class="cls-2" d="M124.59,163.55c0,6.12,0,10.91,0,15.69,0,3-2.13,3.59-4.38,3.61-9.15.05-18.29,0-27.44-.06-2,0-2.4-1.3-2.52-2.95a273.06,273.06,0,0,1-.61-29.45c.14-4.28,2.09-6.79,6.81-6.74,7.83.09,15.66-.1,23.49-.1,1.41,0,3.31-.5,4,1.26.57,1.54-.67,2.8-1.68,3.92l-9.34,10.4a10.93,10.93,0,0,0-1.28,1.53c-2.07,3.46-5.08,8.08-2.25,10.89,2.59,2.57,6.39-1.55,9.31-3.54C120.29,166.9,121.83,165.64,124.59,163.55ZM94.42,178.29l1.3,0v-31h-1.3Z"/><path class="cls-2" d="M107.24,193.87H95.76c-2.78,0-5-.93-5.34-4-.4-3.39,2-4.48,4.63-4.55,8.31-.24,16.62-.26,24.93-.3,3.18,0,2.51,2.41,2.53,4.33,0,2.28-.11,4.43-3.29,4.39-4-.06-8,0-12,0ZM96.1,188.12c0,.74,0,1.48,0,2.22a180,180,0,0,0,22.16.22c.31,0,.79-.66.85-1.06a1.15,1.15,0,0,0-1.11-1.35C110.69,188.11,103.4,188.12,96.1,188.12Z"/><path class="cls-2" d="M116.46,165.67c-3-.36-3.12-2.38-1.87-3.9,4-4.85,8.26-9.47,12.51-14.1.93-1,2.11-.73,3.07.23s1.6,1.95.63,3c-4.18,4.7-8.44,9.33-12.72,13.94A4.69,4.69,0,0,1,116.46,165.67Z"/><path class="cls-2" d="M133.62,141.22a2.36,2.36,0,0,1,2.64,2.29c.14,1.38-.28,2.89-2,2.72a3.43,3.43,0,0,1-3-2.89C131.13,141.94,132.57,141.66,133.62,141.22Z"/><path class="cls-1" d="M94.42,178.29V147.36h1.3v31Z"/><path class="cls-1" d="M96.1,188.12c7.3,0,14.59,0,21.89,0a1.15,1.15,0,0,1,1.11,1.35c-.06.4-.54,1.05-.85,1.06a180,180,0,0,1-22.16-.22C96.09,189.6,96.1,188.86,96.1,188.12Z"/></g></g></svg>