<svg xmlns="http://www.w3.org/2000/svg" viewBox="0 0 215.33 196.62"><defs><style>.cls-1{fill:#e64f73;}.cls-2{fill:#412a75;}.cls-3{fill:#d9286f;}</style></defs><title>Asset 1</title><g id="Layer_2" data-name="Layer 2"><g id="Layer_1-2" data-name="Layer 1"><circle class="cls-1" cx="107.94" cy="91.43" r="91.43"/><path class="cls-2" d="M7.15,78.46c-1.27-.74-2.63-1.39-3.82-2.25C-1.29,72.83-1.1,67,3.89,64,6.51,62.38,18,56.48,19.26,55.86c26.51-12.73,53-25.43,79.44-38.36a19.1,19.1,0,0,1,18.1,0c25.83,12.67,51.74,25.17,77.63,37.74,1.8.88,20.2,12.06,20.74,14.27a5.41,5.41,0,0,1-2.53,5.93c-1.5,1-3,2-4.48,3q-18.1,9.34-36.23,18.72c-17.56,9.09-35.19,18.06-52.64,27.39-7.4,4-14.47,4.35-21.82.32-1.9-1-3.87-1.93-5.8-2.9Q68.71,110.48,45.74,99c-4.1-2-5-1.44-4.89,2.92.21,8.78.48,17.57.48,26.35A14.62,14.62,0,0,0,44.42,138c3,3.72,3,7.76.75,11.63-2,3.47-2.05,6.84-1.12,10.55a130.7,130.7,0,0,1,3.53,16.56c.56,4.83-1.59,7.32-6,8.81-3.45,1.15-6.51-.47-9.76-.44-2.71-.59-5.06-1.6-5.52-4.79v.1c0-1.27,0-2.55.06-3.8,1.24-4.76,2.52-9.53,3.69-14.32s2.18-9.22-.74-13.92c-2.09-3.36-1-7.12,1.27-10.32a19,19,0,0,0,3.16-9.78c.85-9.48.59-19,.42-28.43-.07-4,0-7,5.4-6C40.67,94,42,93,43.27,92.54q25.62-10.49,51.22-21a13.09,13.09,0,0,1,8.65-1,15.43,15.43,0,0,0,11.19-1.06c2.39-1.27,3.94-2.95,4-5.79s-1.53-4.33-3.54-5.62C108.76,54.14,99.76,56,96,62.1A9.61,9.61,0,0,1,91.05,66C77.48,71.49,63.86,76.85,50.36,82.48c-5.57,2.33-12,3.39-15.6,9.16-1,1.56-2.07.4-3-.09C23.55,87.22,15.35,82.83,7.15,78.46Z"/><path class="cls-3" d="M26.27,180.39v0Z"/><path class="cls-2" d="M161.45,132.35c0,3-.2,6,0,9,1,12-5.42,19.37-15.08,24.83a80,80,0,0,1-14.78,6c-1.57.52-3.74.92-3.73,2.82,0,5.83-3.47,11.26-2,17.15.9,3.56-.6,4.51-3.78,4.47-8.66-.09-17.32,0-26-.18-6-.13-8.12-2-8.93-7.9a41,41,0,0,1-.29-9.46c.48-4.93-1.56-7-6.3-8.3-8.07-2.14-15.53-5.62-21.24-12.27a21.92,21.92,0,0,1-5.48-14.59c-.1-8.83-.15-17.66,0-26.49.07-5.61,1.67-6.53,6.76-3.92,12.59,6.46,25.21,12.87,37.65,19.61,6.64,3.6,12.71,3.55,19.34-.13,11.77-6.55,23.75-12.74,35.78-18.82,6.63-3.36,7.73-2.56,8,4.7.09,2.33.06,4.66.07,7,0,2.17,0,4.33,0,6.5Zm-36.86,31.2c-2.76,2.09-4.3,3.35-5.93,4.46-2.92,2-6.72,6.11-9.31,3.54-2.83-2.81.18-7.43,2.25-10.89a10.93,10.93,0,0,1,1.28-1.53l9.34-10.4c1-1.12,2.25-2.38,1.68-3.92-.64-1.76-2.54-1.26-4-1.26-7.83,0-15.66.19-23.49.1-4.72-.05-6.67,2.46-6.81,6.74a273.06,273.06,0,0,0,.61,29.45c.12,1.65.47,2.95,2.52,2.95,9.15,0,18.29.11,27.44.06,2.25,0,4.39-.58,4.38-3.61C124.58,174.46,124.59,169.67,124.59,163.55Zm-17.35,30.32v-.16c4,0,8-.05,12,0,3.18,0,3.31-2.11,3.29-4.39,0-1.92.65-4.34-2.53-4.33-8.31,0-16.62.06-24.93.3-2.65.07-5,1.16-4.63,4.55.37,3.09,2.56,4,5.34,4Zm9.22-28.2a4.69,4.69,0,0,0,1.62-.79c4.28-4.61,8.54-9.24,12.72-13.94,1-1.09.25-2.16-.63-3s-2.14-1.25-3.07-.23c-4.25,4.63-8.53,9.25-12.51,14.1C113.34,163.29,113.46,165.31,116.46,165.67Zm17.16-24.45c-1.05.44-2.49.72-2.29,2.12a3.43,3.43,0,0,0,3,2.89c1.68.17,2.1-1.34,2-2.72A2.36,2.36,0,0,0,133.62,141.22Z"/><path class="cls-1" d="M124.59,163.55c0,6.12,0,10.91,0,15.69,0,3-2.13,3.59-4.38,3.61-9.15.05-18.29,0-27.44-.06-2,0-2.4-1.3-2.52-2.95a273.06,273.06,0,0,1-.61-29.45c.14-4.28,2.09-6.79,6.81-6.74,7.83.09,15.66-.1,23.49-.1,1.41,0,3.31-.5,4,1.26.57,1.54-.67,2.8-1.68,3.92l-9.34,10.4a10.93,10.93,0,0,0-1.28,1.53c-2.07,3.46-5.08,8.08-2.25,10.89,2.59,2.57,6.39-1.55,9.31-3.54C120.29,166.9,121.83,165.64,124.59,163.55ZM94.42,178.29l1.3,0v-31h-1.3Z"/><path class="cls-1" d="M107.24,193.87H95.76c-2.78,0-5-.93-5.34-4-.4-3.39,2-4.48,4.63-4.55,8.31-.24,16.62-.26,24.93-.3,3.18,0,2.51,2.41,2.53,4.33,0,2.28-.11,4.43-3.29,4.39-4-.06-8,0-12,0ZM96.1,188.12c0,.74,0,1.48,0,2.22a180,180,0,0,0,22.16.22c.31,0,.79-.66.85-1.06a1.15,1.15,0,0,0-1.11-1.35C110.69,188.11,103.4,188.12,96.1,188.12Z"/><path class="cls-1" d="M116.46,165.67c-3-.36-3.12-2.38-1.87-3.9,4-4.85,8.26-9.47,12.51-14.1.93-1,2.11-.73,3.07.23s1.6,1.95.63,3c-4.18,4.7-8.44,9.33-12.72,13.94A4.69,4.69,0,0,1,116.46,165.67Z"/><path class="cls-1" d="M133.62,141.22a2.36,2.36,0,0,1,2.64,2.29c.14,1.38-.28,2.89-2,2.72a3.43,3.43,0,0,1-3-2.89C131.13,141.94,132.57,141.66,133.62,141.22Z"/><path class="cls-2" d="M94.42,178.29V147.36h1.3v31Z"/><path class="cls-2" d="M96.1,188.12c7.3,0,14.59,0,21.89,0a1.15,1.15,0,0,1,1.11,1.35c-.06.4-.54,1.05-.85,1.06a180,180,0,0,1-22.16-.22C96.09,189.6,96.1,188.86,96.1,188.12Z"/></g></g></svg>